<?xml version="1.0" encoding="UTF-8"?>
<svg width="640px" height="640px" viewBox="0 0 640 640" version="1.1" xmlns="http://www.w3.org/2000/svg" xmlns:xlink="http://www.w3.org/1999/xlink">
    <!-- Generator: Sketch 46.2 (44496) - http://www.bohemiancoding.com/sketch -->
    <title>Group 6</title>
    <desc>Created with Sketch.</desc>
    <defs></defs>
    <g stroke="none" stroke-width="1" fill="none" fill-rule="evenodd">
        <g>
            <rect fill="#2C2734" x="0" y="0" width="640" height="640" rx="200"></rect>
            <g transform="translate(102.000000, 137.000000)">
                <g transform="translate(204.000000, 196.000000)"></g>
                <g transform="translate(92.000000, 1.000000)"></g>
                <g fill="#FEC38F">
                    <polygon points="111.120623 224.110308 247.139506 224.110308 214.053832 281.659766 144.206297 281.659766"></polygon>
                    <polygon transform="translate(206.567432, 333.346421) rotate(-120.000000) translate(-206.567432, -333.346421) " points="138.55799 304.571692 274.576874 304.571692 241.4912 362.121149 171.643665 362.121149"></polygon>
                    <polygon transform="translate(263.194142, 269.187954) rotate(120.000000) translate(-263.194142, -269.187954) " points="195.1847 240.413225 331.203584 240.413225 298.11791 297.962683 228.270375 297.962683"></polygon>
                    <polygon points="0 29.1625006 136.018884 29.1625006 102.933209 86.7119582 33.0856744 86.7119582"></polygon>
                    <polygon transform="translate(95.446810, 138.398613) rotate(-120.000000) translate(-95.446810, -138.398613) " points="27.4373677 109.623884 163.456251 109.623884 130.370577 167.173342 60.5230421 167.173342"></polygon>
                    <polygon transform="translate(152.073520, 74.240146) rotate(120.000000) translate(-152.073520, -74.240146) " points="84.0640778 45.4654169 220.082962 45.4654169 186.997287 103.014875 117.149752 103.014875"></polygon>
                    <polygon points="224.785992 29.1625006 360.804876 29.1625006 327.719201 86.7119582 257.871667 86.7119582"></polygon>
                    <polygon transform="translate(320.232802, 138.398613) rotate(-120.000000) translate(-320.232802, -138.398613) " points="252.22336 109.623884 388.242244 109.623884 355.156569 167.173342 285.309034 167.173342"></polygon>
                    <polygon transform="translate(376.859512, 74.240146) rotate(120.000000) translate(-376.859512, -74.240146) " points="308.85007 45.4654169 444.868954 45.4654169 411.783279 103.014875 341.935744 103.014875"></polygon>
                </g>
                <g transform="translate(203.500000, 163.500000) scale(-1, 1) rotate(-60.000000) translate(-203.500000, -163.500000) translate(98.000000, 58.000000)" fill="#FEC38F">
                    <polygon points="0 28.1555361 135.881066 28.1555361 102.828915 85.6907621 33.0521511 85.6907621"></polygon>
                    <polygon transform="translate(95.350100, 137.364635) rotate(-120.000000) translate(-95.350100, -137.364635) " points="27.4095674 108.597022 163.290633 108.597022 130.238482 166.132248 60.4617185 166.132248"></polygon>
                    <polygon transform="translate(151.919435, 73.222034) rotate(120.000000) translate(-151.919435, -73.222034) " points="83.9789018 44.4544209 219.859967 44.4544209 186.807816 101.989647 117.031053 101.989647"></polygon>
                </g>
            </g>
        </g>
    </g>
</svg>