<?xml version="1.0" encoding="UTF-8"?>
<svg width="640px" height="640px" viewBox="0 0 640 640" version="1.1" xmlns="http://www.w3.org/2000/svg" xmlns:xlink="http://www.w3.org/1999/xlink">
    <!-- Generator: Sketch 46.2 (44496) - http://www.bohemiancoding.com/sketch -->
    <title>Group 6</title>
    <desc>Created with Sketch.</desc>
    <defs></defs>
    <g stroke="none" stroke-width="1" fill="none" fill-rule="evenodd">
        <g>
            <rect fill="#2C2734" x="0" y="0" width="640" height="640" rx="200"></rect>
            <g transform="translate(63.000000, 96.000000)">
                <g transform="translate(240.000000, 230.000000)"></g>
                <g transform="translate(109.000000, 0.000000)"></g>
                <g fill="#FEC38F">
                    <polygon points="131 263.226201 291.352537 263.226201 252.347866 331.123222 170.004671 331.123222"></polygon>
                    <polygon transform="translate(243.522156, 392.103289) rotate(-120.000000) translate(-243.522156, -392.103289) " points="163.345888 358.154779 323.698425 358.154779 284.693754 426.051799 202.350559 426.051799"></polygon>
                    <polygon transform="translate(310.279333, 316.408940) rotate(120.000000) translate(-310.279333, -316.408940) " points="230.103064 282.46043 390.455601 282.46043 351.45093 350.357451 269.107735 350.357451"></polygon>
                    <polygon points="0 33.2262014 160.352537 33.2262014 121.347866 101.123222 39.0046712 101.123222"></polygon>
                    <polygon transform="translate(112.522156, 162.103289) rotate(-120.000000) translate(-112.522156, -162.103289) " points="32.3458876 128.154779 192.698425 128.154779 153.693754 196.051799 71.3505588 196.051799"></polygon>
                    <polygon transform="translate(179.279333, 86.408940) rotate(120.000000) translate(-179.279333, -86.408940) " points="99.1030642 52.4604303 259.455601 52.4604303 220.45093 120.357451 138.107735 120.357451"></polygon>
                    <polygon points="265 33.2262014 425.352537 33.2262014 386.347866 101.123222 304.004671 101.123222"></polygon>
                    <polygon transform="translate(377.522156, 162.103289) rotate(-120.000000) translate(-377.522156, -162.103289) " points="297.345888 128.154779 457.698425 128.154779 418.693754 196.051799 336.350559 196.051799"></polygon>
                    <polygon transform="translate(444.279333, 86.408940) rotate(120.000000) translate(-444.279333, -86.408940) " points="364.103064 52.4604303 524.455601 52.4604303 485.45093 120.357451 403.107735 120.357451"></polygon>
                </g>
                <g transform="translate(239.500000, 191.500000) scale(-1, 1) rotate(-60.000000) translate(-239.500000, -191.500000) translate(115.000000, 67.000000)" fill="#FEC38F">
                    <polygon points="0 33.2262014 160.352537 33.2262014 121.347866 101.123222 39.0046712 101.123222"></polygon>
                    <polygon transform="translate(112.522156, 162.103289) rotate(-120.000000) translate(-112.522156, -162.103289) " points="32.3458876 128.154779 192.698425 128.154779 153.693754 196.051799 71.3505588 196.051799"></polygon>
                    <polygon transform="translate(179.279333, 86.408940) rotate(120.000000) translate(-179.279333, -86.408940) " points="99.1030642 52.4604303 259.455601 52.4604303 220.45093 120.357451 138.107735 120.357451"></polygon>
                </g>
            </g>
        </g>
    </g>
</svg>